{
 "cells": [
  {
   "cell_type": "code",
   "execution_count": 1,
   "id": "b83fbbeb",
   "metadata": {},
   "outputs": [],
   "source": [
    "import json\n",
    "import pandas as pd\n",
    "import requests\n",
    "import os\n",
    "import subprocess\n",
    "import re\n",
    "import shutil"
   ]
  },
  {
   "cell_type": "code",
   "execution_count": 2,
   "id": "81ba8ac9",
   "metadata": {},
   "outputs": [],
   "source": [
    "metadata_path = \"/shared/3/projects/benlitterer/podcastData/processed/mayJune/mayJuneDataClean.jsonl\"\n",
    "download_path = \"/shared/3/projects/bangzhao/prosodic_embeddings/mfa/cache\"\n",
    "output_path = \"/shared/3/projects/bangzhao/prosodic_embeddings/mfa/output\"\n",
    "# Total rows: 1,124,058"
   ]
  },
  {
   "cell_type": "code",
   "execution_count": 3,
   "id": "c50b73d5",
   "metadata": {},
   "outputs": [],
   "source": [
    "def clean_text_file(file_path):\n",
    "    with open(file_path, 'r', encoding='utf-8') as file:\n",
    "        text = file.read()\n",
    "    \n",
    "    # Remove content between square brackets and parentheses (including the brackets and parentheses themselves)\n",
    "    cleaned_text = re.sub(r'\\[.*?\\]', '', text, flags=re.IGNORECASE)\n",
    "    cleaned_text = re.sub(r'\\(.*?\\)', '', cleaned_text, flags=re.IGNORECASE)\n",
    "    # Remove the '>>' mark\n",
    "    cleaned_text = re.sub(r'>>', '', cleaned_text, flags=re.IGNORECASE)\n",
    "    \n",
    "    # Remove extra spaces left after removing patterns\n",
    "    cleaned_text = re.sub(r'\\s{2,}', ' ', cleaned_text)  # Replace multiple spaces with a single space\n",
    "    cleaned_text = cleaned_text.strip()  # Remove leading and trailing whitespace\n",
    "\n",
    "    with open(file_path, 'w', encoding='utf-8') as file:\n",
    "        file.write(cleaned_text)\n",
    "\n",
    "def clean_directory(directory_path):\n",
    "    for root, _, files in os.walk(directory_path):\n",
    "        for filename in files:\n",
    "            if filename.endswith('.txt'):\n",
    "                file_path = os.path.join(root, filename)\n",
    "                clean_text_file(file_path)\n",
    "                print(f\"Processed {file_path}\")"
   ]
  },
  {
   "cell_type": "code",
   "execution_count": 8,
   "id": "2790cd09",
   "metadata": {},
   "outputs": [],
   "source": [
    "def count_rows(file_path):\n",
    "    \"\"\"Count the total number of rows in a JSONL file.\"\"\"\n",
    "    with open(file_path, 'r', encoding='utf-8') as file:\n",
    "        return sum(1 for _ in file)\n",
    "    \n",
    "\n",
    "def download_mp3(json_object, i, download_directory):\n",
    "    \"\"\"Download MP3 file from the URL specified in the JSON object.\"\"\"\n",
    "    mp3_url = json_object['enclosure']\n",
    "\n",
    "    response = requests.get(mp3_url, stream=True)\n",
    "    if response.status_code == 200:\n",
    "        mp3_filename = os.path.join(download_directory, f\"{i}.mp3\")\n",
    "        with open(mp3_filename, 'wb') as mp3_file:\n",
    "            for chunk in response.iter_content(chunk_size=8192):\n",
    "                mp3_file.write(chunk)\n",
    "        print(f\"Downloaded {mp3_filename}\")\n",
    "        return True\n",
    "    else:\n",
    "        print(f\"Failed to download {mp3_url}, status code: {response.status_code}\")\n",
    "    return False\n",
    "\n",
    "        \n",
    "def download_transcript(json_object, i, download_directory):\n",
    "    \"\"\"Write the transcript from the JSON object to a text file in the download directory.\"\"\"\n",
    "    transcript = json_object[\"transcript\"]\n",
    "    transcript_filename = os.path.join(download_directory, f\"{i}.txt\")\n",
    "    with open(transcript_filename, 'w', encoding='utf-8') as transcript_file:\n",
    "        transcript_file.write(transcript)\n",
    "    print(f\"Transcript saved as {transcript_filename}\")\n",
    "    \n",
    "    \n",
    "def get_prosody(json_object):\n",
    "    prosodic_path = \"/shared/3/projects/benlitterer/podcastData/prosodyMerged/floydMonth\" + json_object['potentialOutPath']\n",
    "    prosodic_feature = pd.read_csv(prosodic_path)\n",
    "    prosodic_feature = prosodic_feature.drop(columns=['Unnamed: 0'])\n",
    "    return prosodic_feature\n",
    "\n",
    "\n",
    "def convert_mp3_to_wav(directory):\n",
    "    # Iterate over all files in the directory\n",
    "    for filename in os.listdir(directory):\n",
    "        if filename.endswith(\".mp3\"):\n",
    "            mp3_path = os.path.join(directory, filename)\n",
    "            wav_path = os.path.splitext(mp3_path)[0] + '.wav'\n",
    "            \n",
    "            # Construct the ffmpeg command\n",
    "            command = ['ffmpeg', '-y', '-i', mp3_path, wav_path]\n",
    "\n",
    "            # Execute the command\n",
    "            try:\n",
    "                subprocess.run(command, check=True)\n",
    "                print(f\"Converted {mp3_path} to {wav_path}\")\n",
    "                # Remove the original MP3 file after conversion\n",
    "                os.remove(mp3_path)\n",
    "                print(f\"Removed original MP3 file: {mp3_path}\")\n",
    "            except subprocess.CalledProcessError as e:\n",
    "                print(f\"Failed to convert {mp3_path}: {e}\")\n",
    "                \n",
    "\n",
    "def run_mfa_align(input_path, acoustic_model, dictionary, output_path, beam, retry_beam, num_jobs):\n",
    "    # Convert the output path to an absolute path\n",
    "    # absolute_output_path = os.path.abspath(output_path)\n",
    "    \n",
    "    # Construct the MFA align command with the absolute path\n",
    "    command = [\n",
    "        'mfa', 'align', '--clean', input_path, acoustic_model, dictionary,\n",
    "        output_path, '--beam', str(beam), '--retry_beam', \n",
    "        str(retry_beam), '--num_jobs', str(num_jobs), '--single_speaker'\n",
    "    ]\n",
    "\n",
    "    # Print the command to verify\n",
    "    print(\"Running command:\", ' '.join(command))\n",
    "\n",
    "    # Execute the command\n",
    "    try:\n",
    "        subprocess.run(command, check=True)\n",
    "        print(\"Command executed successfully.\")\n",
    "    except subprocess.CalledProcessError as e:\n",
    "        print(f\"Failed to execute command: {e}\")\n",
    "        \n",
    "\n",
    "def parse_textgrid(file_path):\n",
    "    data = []\n",
    "    with open(file_path, 'r', encoding='utf-8') as f:\n",
    "        lines = f.readlines()\n",
    "    \n",
    "    tier_name = None\n",
    "    tier_type = None\n",
    "    start_time = None\n",
    "    end_time = None\n",
    "    label = None\n",
    "    in_intervals = False\n",
    "\n",
    "    for line in lines:\n",
    "        line = line.strip()\n",
    "        \n",
    "        if line.startswith('name = '):\n",
    "            tier_name = line.split('=')[1].strip().strip('\"')\n",
    "        elif line.startswith('class = \"IntervalTier\"'):\n",
    "            tier_type = 'IntervalTier'\n",
    "        elif line.startswith('class = \"TextTier\"'):\n",
    "            tier_type = 'TextTier'\n",
    "        elif line.startswith('intervals:'):\n",
    "            in_intervals = True\n",
    "        elif line.startswith('points:'):\n",
    "            in_intervals = False\n",
    "        elif in_intervals and line.startswith('xmin ='):\n",
    "            start_time = float(line.split('=')[1].strip())\n",
    "        elif in_intervals and line.startswith('xmax ='):\n",
    "            end_time = float(line.split('=')[1].strip())\n",
    "        elif in_intervals and line.startswith('text ='):\n",
    "            label = line.split('=')[1].strip().strip('\"')\n",
    "            data.append([tier_name, start_time, end_time, label])\n",
    "        elif tier_type == 'TextTier' and line.startswith('number ='):\n",
    "            time = float(line.split('=')[1].strip())\n",
    "            label = 'point'  # Placeholder, replace with actual point data if needed\n",
    "            data.append([tier_name, time, time, label])\n",
    "\n",
    "    return data\n",
    "\n",
    "\n",
    "def convert_textgrids_to_csv(directory):\n",
    "    # Iterate over all files in the directory\n",
    "    for filename in os.listdir(directory):\n",
    "        if filename.endswith(\".TextGrid\"):\n",
    "            textgrid_path = os.path.join(directory, filename)\n",
    "            csv_path = os.path.splitext(textgrid_path)[0] + '.csv'\n",
    "\n",
    "            # Parse the TextGrid file\n",
    "            data = parse_textgrid(textgrid_path)\n",
    "\n",
    "            # Create a DataFrame\n",
    "            df = pd.DataFrame(data, columns=['Tier', 'Start Time', 'End Time', 'Label'])\n",
    "\n",
    "            # Save the DataFrame to a CSV file\n",
    "            df.to_csv(csv_path, index=False)\n",
    "            print(f\"Converted {textgrid_path} to {csv_path}\")\n",
    "\n",
    "            # Remove the original TextGrid file\n",
    "            os.remove(textgrid_path)\n",
    "            print(f\"Removed original TextGrid file: {textgrid_path}\")\n",
    "    \n",
    "\n",
    "def process_batch(download_directory):\n",
    "    # clean the transcripts\n",
    "    clean_directory(download_directory)   \n",
    "    convert_mp3_to_wav(download_directory)\n",
    "\n",
    "    acoustic_model = 'english_us_arpa'\n",
    "    dictionary = 'english_us_arpa'\n",
    "    beam = 10\n",
    "    retry_beam = 40\n",
    "    num_jobs = 12\n",
    "\n",
    "    run_mfa_align(download_directory, acoustic_model, dictionary, output_path, beam, retry_beam, num_jobs)\n",
    "    convert_textgrids_to_csv(output_path)\n",
    "\n",
    "    # Remove all files under the download directory\n",
    "    for filename in os.listdir(download_directory):\n",
    "        file_path = os.path.join(download_directory, filename)\n",
    "        try:\n",
    "            if os.path.isfile(file_path) or os.path.islink(file_path):\n",
    "                os.unlink(file_path)\n",
    "            elif os.path.isdir(file_path):\n",
    "                shutil.rmtree(file_path)\n",
    "        except Exception as e:\n",
    "            print(f'Failed to delete {file_path}. Reason: {e}')    \n",
    "            \n",
    "            \n",
    "def get_json_objects(file_path, download_directory, batch_size=12):\n",
    "    \"\"\"Read JSONL file and process each JSON object.\"\"\"\n",
    "    # total_rows = count_rows(file_path)\n",
    "    # print(f\"Total rows: {total_rows}\")\n",
    "    downloaded_files = 0\n",
    "    \n",
    "    with open(file_path, 'r', encoding='utf-8') as file:\n",
    "        \n",
    "        for i, line in enumerate(file):\n",
    "            if 1:\n",
    "                json_object = json.loads(line)\n",
    "                #print(json.dumps(json_object, indent=4))\n",
    "                \n",
    "                # Construct the prosodic path and read the CSV file\n",
    "                # get_prosody(json_object)\n",
    "\n",
    "                # Download the MP3 file\n",
    "                success = download_mp3(json_object, i, download_directory)\n",
    "                if success:\n",
    "                    downloaded_files += 1\n",
    "                download_transcript(json_object, i, download_directory)\n",
    "                print(success)\n",
    "            \n",
    "            else:\n",
    "                print(f\"An error occurred at line {i}\")\n",
    "\n",
    "            if i % 100000 == 0:\n",
    "                print(f\"Processed {i} lines...\")\n",
    "        \n",
    "            if downloaded_files >= batch_size:\n",
    "                process_batch(download_directory)    \n",
    "                downloaded_files = 0\n",
    "                break\n",
    "        \n",
    "        # Process any remaining files in the last batch\n",
    "        if downloaded_files > 0:\n",
    "            process_batch(download_directory)\n",
    "\n",
    "        return i"
   ]
  },
  {
   "cell_type": "code",
   "execution_count": 9,
   "id": "ea1ef341",
   "metadata": {},
   "outputs": [
    {
     "name": "stdout",
     "output_type": "stream",
     "text": [
      "Failed to download https://www.buzzsprout.com/783020/4252475-best-of-singout-speakout-no-3.mp3, status code: 403\n",
      "Transcript saved as /shared/3/projects/bangzhao/prosodic_embeddings/mfa/cache/file_0.txt\n",
      "False\n",
      "Processed 0 lines...\n",
      "Failed to download https://www.buzzsprout.com/783020/4165286-it-s-all-gone.mp3, status code: 403\n",
      "Transcript saved as /shared/3/projects/bangzhao/prosodic_embeddings/mfa/cache/file_1.txt\n",
      "False\n",
      "Failed to download https://www.buzzsprout.com/783020/3983942-today-is-yesterday.mp3, status code: 403\n",
      "Transcript saved as /shared/3/projects/bangzhao/prosodic_embeddings/mfa/cache/file_2.txt\n",
      "False\n",
      "Failed to download https://www.buzzsprout.com/783020/3892169-saturn-return.mp3, status code: 403\n",
      "Transcript saved as /shared/3/projects/bangzhao/prosodic_embeddings/mfa/cache/file_3.txt\n",
      "False\n",
      "Failed to download https://www.buzzsprout.com/783020/3791501-quarterlife-crisis.mp3, status code: 403\n",
      "Transcript saved as /shared/3/projects/bangzhao/prosodic_embeddings/mfa/cache/file_4.txt\n",
      "False\n",
      "Downloaded /shared/3/projects/bangzhao/prosodic_embeddings/mfa/cache/file_5.mp3\n",
      "Transcript saved as /shared/3/projects/bangzhao/prosodic_embeddings/mfa/cache/file_5.txt\n",
      "True\n",
      "Downloaded /shared/3/projects/bangzhao/prosodic_embeddings/mfa/cache/file_6.mp3\n",
      "Transcript saved as /shared/3/projects/bangzhao/prosodic_embeddings/mfa/cache/file_6.txt\n",
      "True\n",
      "Downloaded /shared/3/projects/bangzhao/prosodic_embeddings/mfa/cache/file_7.mp3\n",
      "Transcript saved as /shared/3/projects/bangzhao/prosodic_embeddings/mfa/cache/file_7.txt\n",
      "True\n",
      "Downloaded /shared/3/projects/bangzhao/prosodic_embeddings/mfa/cache/file_8.mp3\n",
      "Transcript saved as /shared/3/projects/bangzhao/prosodic_embeddings/mfa/cache/file_8.txt\n",
      "True\n",
      "Failed to download https://mcdn.podbean.com/mf/web/1o71dp/What_causes_anxiety_9cmcw.mp3, status code: 404\n",
      "Transcript saved as /shared/3/projects/bangzhao/prosodic_embeddings/mfa/cache/file_9.txt\n",
      "False\n",
      "Failed to download https://mcdn.podbean.com/mf/web/u3jew7/How_we_damage_our_confidence_60m1l.mp3, status code: 404\n",
      "Transcript saved as /shared/3/projects/bangzhao/prosodic_embeddings/mfa/cache/file_10.txt\n",
      "False\n",
      "Failed to download https://mcdn.podbean.com/mf/web/33wqr8/How_to_use_visualisation_to_improve_performance_7s4x1.mp3, status code: 404\n",
      "Transcript saved as /shared/3/projects/bangzhao/prosodic_embeddings/mfa/cache/file_11.txt\n",
      "False\n",
      "Failed to download https://mcdn.podbean.com/mf/web/cjkfeg/How_anxiety_affects_memory_99onh.mp3, status code: 404\n",
      "Transcript saved as /shared/3/projects/bangzhao/prosodic_embeddings/mfa/cache/file_12.txt\n",
      "False\n",
      "Failed to download https://mcdn.podbean.com/mf/web/4y3sgm/Howtoseemmoreassertive9gajk.mp3, status code: 404\n",
      "Transcript saved as /shared/3/projects/bangzhao/prosodic_embeddings/mfa/cache/file_13.txt\n",
      "False\n",
      "Failed to download https://mcdn.podbean.com/mf/web/df7tfk/Howanxietyaffectscoommunicationa3fh8.mp3, status code: 404\n",
      "Transcript saved as /shared/3/projects/bangzhao/prosodic_embeddings/mfa/cache/file_14.txt\n",
      "False\n",
      "Downloaded /shared/3/projects/bangzhao/prosodic_embeddings/mfa/cache/file_15.mp3\n",
      "Transcript saved as /shared/3/projects/bangzhao/prosodic_embeddings/mfa/cache/file_15.txt\n",
      "True\n",
      "Downloaded /shared/3/projects/bangzhao/prosodic_embeddings/mfa/cache/file_16.mp3\n",
      "Transcript saved as /shared/3/projects/bangzhao/prosodic_embeddings/mfa/cache/file_16.txt\n",
      "True\n",
      "Downloaded /shared/3/projects/bangzhao/prosodic_embeddings/mfa/cache/file_17.mp3\n",
      "Transcript saved as /shared/3/projects/bangzhao/prosodic_embeddings/mfa/cache/file_17.txt\n",
      "True\n",
      "Downloaded /shared/3/projects/bangzhao/prosodic_embeddings/mfa/cache/file_18.mp3\n",
      "Transcript saved as /shared/3/projects/bangzhao/prosodic_embeddings/mfa/cache/file_18.txt\n",
      "True\n",
      "Downloaded /shared/3/projects/bangzhao/prosodic_embeddings/mfa/cache/file_19.mp3\n",
      "Transcript saved as /shared/3/projects/bangzhao/prosodic_embeddings/mfa/cache/file_19.txt\n",
      "True\n",
      "Downloaded /shared/3/projects/bangzhao/prosodic_embeddings/mfa/cache/file_20.mp3\n",
      "Transcript saved as /shared/3/projects/bangzhao/prosodic_embeddings/mfa/cache/file_20.txt\n",
      "True\n",
      "Downloaded /shared/3/projects/bangzhao/prosodic_embeddings/mfa/cache/file_21.mp3\n",
      "Transcript saved as /shared/3/projects/bangzhao/prosodic_embeddings/mfa/cache/file_21.txt\n",
      "True\n",
      "Downloaded /shared/3/projects/bangzhao/prosodic_embeddings/mfa/cache/file_22.mp3\n",
      "Transcript saved as /shared/3/projects/bangzhao/prosodic_embeddings/mfa/cache/file_22.txt\n",
      "True\n",
      "Processed /shared/3/projects/bangzhao/prosodic_embeddings/mfa/cache/file_0.txt\n",
      "Processed /shared/3/projects/bangzhao/prosodic_embeddings/mfa/cache/file_1.txt\n",
      "Processed /shared/3/projects/bangzhao/prosodic_embeddings/mfa/cache/file_2.txt\n",
      "Processed /shared/3/projects/bangzhao/prosodic_embeddings/mfa/cache/file_3.txt\n",
      "Processed /shared/3/projects/bangzhao/prosodic_embeddings/mfa/cache/file_4.txt\n",
      "Processed /shared/3/projects/bangzhao/prosodic_embeddings/mfa/cache/file_5.txt\n",
      "Processed /shared/3/projects/bangzhao/prosodic_embeddings/mfa/cache/file_6.txt\n",
      "Processed /shared/3/projects/bangzhao/prosodic_embeddings/mfa/cache/file_7.txt\n",
      "Processed /shared/3/projects/bangzhao/prosodic_embeddings/mfa/cache/file_8.txt\n",
      "Processed /shared/3/projects/bangzhao/prosodic_embeddings/mfa/cache/file_9.txt\n",
      "Processed /shared/3/projects/bangzhao/prosodic_embeddings/mfa/cache/file_10.txt\n",
      "Processed /shared/3/projects/bangzhao/prosodic_embeddings/mfa/cache/file_11.txt\n",
      "Processed /shared/3/projects/bangzhao/prosodic_embeddings/mfa/cache/file_12.txt\n",
      "Processed /shared/3/projects/bangzhao/prosodic_embeddings/mfa/cache/file_13.txt\n",
      "Processed /shared/3/projects/bangzhao/prosodic_embeddings/mfa/cache/file_14.txt\n",
      "Processed /shared/3/projects/bangzhao/prosodic_embeddings/mfa/cache/file_15.txt\n",
      "Processed /shared/3/projects/bangzhao/prosodic_embeddings/mfa/cache/file_16.txt\n",
      "Processed /shared/3/projects/bangzhao/prosodic_embeddings/mfa/cache/file_17.txt\n",
      "Processed /shared/3/projects/bangzhao/prosodic_embeddings/mfa/cache/file_18.txt\n",
      "Processed /shared/3/projects/bangzhao/prosodic_embeddings/mfa/cache/file_19.txt\n",
      "Processed /shared/3/projects/bangzhao/prosodic_embeddings/mfa/cache/file_20.txt\n",
      "Processed /shared/3/projects/bangzhao/prosodic_embeddings/mfa/cache/file_21.txt\n",
      "Processed /shared/3/projects/bangzhao/prosodic_embeddings/mfa/cache/file_22.txt\n"
     ]
    },
    {
     "name": "stderr",
     "output_type": "stream",
     "text": [
      "ffmpeg version 7.0.1 Copyright (c) 2000-2024 the FFmpeg developers\n",
      "  built with gcc 12.3.0 (conda-forge gcc 12.3.0-7)\n",
      "  configuration: --prefix=/home/conda/feedstock_root/build_artifacts/ffmpeg_1716729489913/_h_env_placehold_placehold_placehold_placehold_placehold_placehold_placehold_placehold_placehold_placehold_placehold_placehold_placehold_placehold_placehold_placehold_placehold_placehold_plac --cc=/home/conda/feedstock_root/build_artifacts/ffmpeg_1716729489913/_build_env/bin/x86_64-conda-linux-gnu-cc --cxx=/home/conda/feedstock_root/build_artifacts/ffmpeg_1716729489913/_build_env/bin/x86_64-conda-linux-gnu-c++ --nm=/home/conda/feedstock_root/build_artifacts/ffmpeg_1716729489913/_build_env/bin/x86_64-conda-linux-gnu-nm --ar=/home/conda/feedstock_root/build_artifacts/ffmpeg_1716729489913/_build_env/bin/x86_64-conda-linux-gnu-ar --disable-doc --disable-openssl --enable-demuxer=dash --enable-hardcoded-tables --enable-libfreetype --enable-libharfbuzz --enable-libfontconfig --enable-libopenh264 --enable-libdav1d --enable-gnutls --enable-libmp3lame --enable-libvpx --enable-libass --enable-pthreads --enable-vaapi --enable-libopenvino --enable-gpl --enable-libx264 --enable-libx265 --enable-libaom --enable-libsvtav1 --enable-libxml2 --enable-pic --enable-shared --disable-static --enable-version3 --enable-zlib --enable-libopus --pkg-config=/home/conda/feedstock_root/build_artifacts/ffmpeg_1716729489913/_build_env/bin/pkg-config\n",
      "  libavutil      59.  8.100 / 59.  8.100\n",
      "  libavcodec     61.  3.100 / 61.  3.100\n",
      "  libavformat    61.  1.100 / 61.  1.100\n",
      "  libavdevice    61.  1.100 / 61.  1.100\n",
      "  libavfilter    10.  1.100 / 10.  1.100\n",
      "  libswscale      8.  1.100 /  8.  1.100\n",
      "  libswresample   5.  1.100 /  5.  1.100\n",
      "  libpostproc    58.  1.100 / 58.  1.100\n",
      "[mp3 @ 0x55818c5bab40] Estimating duration from bitrate, this may be inaccurate\n",
      "Input #0, mp3, from '/shared/3/projects/bangzhao/prosodic_embeddings/mfa/cache/file_5.mp3':\n",
      "  Metadata:\n",
      "    encoder         : LAME 64bits version 3.98.2 (http://www.mp3dev.org/)\n",
      "  Duration: 00:32:47.07, start: 0.000000, bitrate: 128 kb/s\n",
      "  Stream #0:0: Audio: mp3 (mp3float), 44100 Hz, stereo, fltp, 128 kb/s\n",
      "Stream mapping:\n",
      "  Stream #0:0 -> #0:0 (mp3 (mp3float) -> pcm_s16le (native))\n",
      "Press [q] to stop, [?] for help\n",
      "Output #0, wav, to '/shared/3/projects/bangzhao/prosodic_embeddings/mfa/cache/file_5.wav':\n",
      "  Metadata:\n",
      "    ISFT            : Lavf61.1.100\n",
      "  Stream #0:0: Audio: pcm_s16le ([1][0][0][0] / 0x0001), 44100 Hz, stereo, s16, 1411 kb/s\n",
      "      Metadata:\n",
      "        encoder         : Lavc61.3.100 pcm_s16le\n",
      "[out#0/wav @ 0x55818c5bee40] video:0KiB audio:339638KiB subtitle:0KiB other streams:0KiB global headers:0KiB muxing overhead: 0.000022%\n",
      "size=  339638KiB time=00:32:51.59 bitrate=1411.2kbits/s speed= 150x    \n",
      "ffmpeg version 7.0.1 Copyright (c) 2000-2024 the FFmpeg developers\n",
      "  built with gcc 12.3.0 (conda-forge gcc 12.3.0-7)\n",
      "  configuration: --prefix=/home/conda/feedstock_root/build_artifacts/ffmpeg_1716729489913/_h_env_placehold_placehold_placehold_placehold_placehold_placehold_placehold_placehold_placehold_placehold_placehold_placehold_placehold_placehold_placehold_placehold_placehold_placehold_plac --cc=/home/conda/feedstock_root/build_artifacts/ffmpeg_1716729489913/_build_env/bin/x86_64-conda-linux-gnu-cc --cxx=/home/conda/feedstock_root/build_artifacts/ffmpeg_1716729489913/_build_env/bin/x86_64-conda-linux-gnu-c++ --nm=/home/conda/feedstock_root/build_artifacts/ffmpeg_1716729489913/_build_env/bin/x86_64-conda-linux-gnu-nm --ar=/home/conda/feedstock_root/build_artifacts/ffmpeg_1716729489913/_build_env/bin/x86_64-conda-linux-gnu-ar --disable-doc --disable-openssl --enable-demuxer=dash --enable-hardcoded-tables --enable-libfreetype --enable-libharfbuzz --enable-libfontconfig --enable-libopenh264 --enable-libdav1d --enable-gnutls --enable-libmp3lame --enable-libvpx --enable-libass --enable-pthreads --enable-vaapi --enable-libopenvino --enable-gpl --enable-libx264 --enable-libx265 --enable-libaom --enable-libsvtav1 --enable-libxml2 --enable-pic --enable-shared --disable-static --enable-version3 --enable-zlib --enable-libopus --pkg-config=/home/conda/feedstock_root/build_artifacts/ffmpeg_1716729489913/_build_env/bin/pkg-config\n",
      "  libavutil      59.  8.100 / 59.  8.100\n",
      "  libavcodec     61.  3.100 / 61.  3.100\n",
      "  libavformat    61.  1.100 / 61.  1.100\n",
      "  libavdevice    61.  1.100 / 61.  1.100\n",
      "  libavfilter    10.  1.100 / 10.  1.100\n",
      "  libswscale      8.  1.100 /  8.  1.100\n",
      "  libswresample   5.  1.100 /  5.  1.100\n",
      "  libpostproc    58.  1.100 / 58.  1.100\n",
      "[mp3 @ 0x55c93d901b40] Estimating duration from bitrate, this may be inaccurate\n",
      "Input #0, mp3, from '/shared/3/projects/bangzhao/prosodic_embeddings/mfa/cache/file_6.mp3':\n",
      "  Metadata:\n",
      "    encoder         : LAME 64bits version 3.98.2 (http://www.mp3dev.org/)\n",
      "  Duration: 00:57:00.42, start: 0.000000, bitrate: 128 kb/s\n",
      "  Stream #0:0: Audio: mp3 (mp3float), 44100 Hz, stereo, fltp, 128 kb/s\n",
      "Stream mapping:\n",
      "  Stream #0:0 -> #0:0 (mp3 (mp3float) -> pcm_s16le (native))\n",
      "Press [q] to stop, [?] for help\n"
     ]
    },
    {
     "name": "stdout",
     "output_type": "stream",
     "text": [
      "Converted /shared/3/projects/bangzhao/prosodic_embeddings/mfa/cache/file_5.mp3 to /shared/3/projects/bangzhao/prosodic_embeddings/mfa/cache/file_5.wav\n",
      "Removed original MP3 file: /shared/3/projects/bangzhao/prosodic_embeddings/mfa/cache/file_5.mp3\n"
     ]
    },
    {
     "name": "stderr",
     "output_type": "stream",
     "text": [
      "Output #0, wav, to '/shared/3/projects/bangzhao/prosodic_embeddings/mfa/cache/file_6.wav':\n",
      "  Metadata:\n",
      "    ISFT            : Lavf61.1.100\n",
      "  Stream #0:0: Audio: pcm_s16le ([1][0][0][0] / 0x0001), 44100 Hz, stereo, s16, 1411 kb/s\n",
      "      Metadata:\n",
      "        encoder         : Lavc61.3.100 pcm_s16le\n",
      "[out#0/wav @ 0x55c93d905e40] video:0KiB audio:590576KiB subtitle:0KiB other streams:0KiB global headers:0KiB muxing overhead: 0.000013%\n",
      "size=  590576KiB time=00:57:08.28 bitrate=1411.2kbits/s speed= 144x    \n",
      "ffmpeg version 7.0.1 Copyright (c) 2000-2024 the FFmpeg developers\n",
      "  built with gcc 12.3.0 (conda-forge gcc 12.3.0-7)\n",
      "  configuration: --prefix=/home/conda/feedstock_root/build_artifacts/ffmpeg_1716729489913/_h_env_placehold_placehold_placehold_placehold_placehold_placehold_placehold_placehold_placehold_placehold_placehold_placehold_placehold_placehold_placehold_placehold_placehold_placehold_plac --cc=/home/conda/feedstock_root/build_artifacts/ffmpeg_1716729489913/_build_env/bin/x86_64-conda-linux-gnu-cc --cxx=/home/conda/feedstock_root/build_artifacts/ffmpeg_1716729489913/_build_env/bin/x86_64-conda-linux-gnu-c++ --nm=/home/conda/feedstock_root/build_artifacts/ffmpeg_1716729489913/_build_env/bin/x86_64-conda-linux-gnu-nm --ar=/home/conda/feedstock_root/build_artifacts/ffmpeg_1716729489913/_build_env/bin/x86_64-conda-linux-gnu-ar --disable-doc --disable-openssl --enable-demuxer=dash --enable-hardcoded-tables --enable-libfreetype --enable-libharfbuzz --enable-libfontconfig --enable-libopenh264 --enable-libdav1d --enable-gnutls --enable-libmp3lame --enable-libvpx --enable-libass --enable-pthreads --enable-vaapi --enable-libopenvino --enable-gpl --enable-libx264 --enable-libx265 --enable-libaom --enable-libsvtav1 --enable-libxml2 --enable-pic --enable-shared --disable-static --enable-version3 --enable-zlib --enable-libopus --pkg-config=/home/conda/feedstock_root/build_artifacts/ffmpeg_1716729489913/_build_env/bin/pkg-config\n",
      "  libavutil      59.  8.100 / 59.  8.100\n",
      "  libavcodec     61.  3.100 / 61.  3.100\n",
      "  libavformat    61.  1.100 / 61.  1.100\n",
      "  libavdevice    61.  1.100 / 61.  1.100\n",
      "  libavfilter    10.  1.100 / 10.  1.100\n",
      "  libswscale      8.  1.100 /  8.  1.100\n",
      "  libswresample   5.  1.100 /  5.  1.100\n",
      "  libpostproc    58.  1.100 / 58.  1.100\n"
     ]
    },
    {
     "name": "stdout",
     "output_type": "stream",
     "text": [
      "Converted /shared/3/projects/bangzhao/prosodic_embeddings/mfa/cache/file_6.mp3 to /shared/3/projects/bangzhao/prosodic_embeddings/mfa/cache/file_6.wav\n",
      "Removed original MP3 file: /shared/3/projects/bangzhao/prosodic_embeddings/mfa/cache/file_6.mp3\n"
     ]
    },
    {
     "name": "stderr",
     "output_type": "stream",
     "text": [
      "[mp3 @ 0x559221d20b40] Estimating duration from bitrate, this may be inaccurate\n",
      "Input #0, mp3, from '/shared/3/projects/bangzhao/prosodic_embeddings/mfa/cache/file_7.mp3':\n",
      "  Metadata:\n",
      "    album_artist    : California Community Colleges Chancellor’s Office\n",
      "    track           : 33\n",
      "    genre           : Vocal\n",
      "    title           : CCC20033.mp3  Episode 33  \"College Futures Foundation\"  25:58 TRT\n",
      "    artist          : Eloy Ortiz Oakley, Monica Lozano\n",
      "    album           : California Community Colleges Podast\n",
      "    date            : 2020\n",
      "  Duration: 00:25:56.74, start: 0.000000, bitrate: 323 kb/s\n",
      "  Stream #0:0: Audio: mp3 (mp3float), 44100 Hz, stereo, fltp, 320 kb/s\n",
      "  Stream #0:1: Video: png, rgba(pc, gbr/unknown/unknown), 682x684, 90k tbr, 90k tbn (attached pic)\n",
      "      Metadata:\n",
      "        comment         : Other\n",
      "Stream mapping:\n",
      "  Stream #0:0 -> #0:0 (mp3 (mp3float) -> pcm_s16le (native))\n",
      "Press [q] to stop, [?] for help\n",
      "Output #0, wav, to '/shared/3/projects/bangzhao/prosodic_embeddings/mfa/cache/file_7.wav':\n",
      "  Metadata:\n",
      "    album_artist    : California Community Colleges Chancellor’s Office\n",
      "    IPRT            : 33\n",
      "    IGNR            : Vocal\n",
      "    INAM            : CCC20033.mp3  Episode 33  \"College Futures Foundation\"  25:58 TRT\n",
      "    IART            : Eloy Ortiz Oakley, Monica Lozano\n",
      "    IPRD            : California Community Colleges Podast\n",
      "    ICRD            : 2020\n",
      "    ISFT            : Lavf61.1.100\n",
      "  Stream #0:0: Audio: pcm_s16le ([1][0][0][0] / 0x0001), 44100 Hz, stereo, s16, 1411 kb/s\n",
      "      Metadata:\n",
      "        encoder         : Lavc61.3.100 pcm_s16le\n",
      "[out#0/wav @ 0x559221d3e780] video:0KiB audio:268402KiB subtitle:0KiB other streams:0KiB global headers:0KiB muxing overhead: 0.000102%\n",
      "size=  268403KiB time=00:25:58.07 bitrate=1411.2kbits/s speed= 161x    \n",
      "ffmpeg version 7.0.1 Copyright (c) 2000-2024 the FFmpeg developers\n",
      "  built with gcc 12.3.0 (conda-forge gcc 12.3.0-7)\n",
      "  configuration: --prefix=/home/conda/feedstock_root/build_artifacts/ffmpeg_1716729489913/_h_env_placehold_placehold_placehold_placehold_placehold_placehold_placehold_placehold_placehold_placehold_placehold_placehold_placehold_placehold_placehold_placehold_placehold_placehold_plac --cc=/home/conda/feedstock_root/build_artifacts/ffmpeg_1716729489913/_build_env/bin/x86_64-conda-linux-gnu-cc --cxx=/home/conda/feedstock_root/build_artifacts/ffmpeg_1716729489913/_build_env/bin/x86_64-conda-linux-gnu-c++ --nm=/home/conda/feedstock_root/build_artifacts/ffmpeg_1716729489913/_build_env/bin/x86_64-conda-linux-gnu-nm --ar=/home/conda/feedstock_root/build_artifacts/ffmpeg_1716729489913/_build_env/bin/x86_64-conda-linux-gnu-ar --disable-doc --disable-openssl --enable-demuxer=dash --enable-hardcoded-tables --enable-libfreetype --enable-libharfbuzz --enable-libfontconfig --enable-libopenh264 --enable-libdav1d --enable-gnutls --enable-libmp3lame --enable-libvpx --enable-libass --enable-pthreads --enable-vaapi --enable-libopenvino --enable-gpl --enable-libx264 --enable-libx265 --enable-libaom --enable-libsvtav1 --enable-libxml2 --enable-pic --enable-shared --disable-static --enable-version3 --enable-zlib --enable-libopus --pkg-config=/home/conda/feedstock_root/build_artifacts/ffmpeg_1716729489913/_build_env/bin/pkg-config\n",
      "  libavutil      59.  8.100 / 59.  8.100\n",
      "  libavcodec     61.  3.100 / 61.  3.100\n",
      "  libavformat    61.  1.100 / 61.  1.100\n",
      "  libavdevice    61.  1.100 / 61.  1.100\n",
      "  libavfilter    10.  1.100 / 10.  1.100\n",
      "  libswscale      8.  1.100 /  8.  1.100\n",
      "  libswresample   5.  1.100 /  5.  1.100\n",
      "  libpostproc    58.  1.100 / 58.  1.100\n",
      "[mp3 @ 0x557bad42ab40] Skipping 1 bytes of junk at 56177.\n",
      "[mp3 @ 0x557bad42ab40] Estimating duration from bitrate, this may be inaccurate\n",
      "Input #0, mp3, from '/shared/3/projects/bangzhao/prosodic_embeddings/mfa/cache/file_8.mp3':\n",
      "  Metadata:\n",
      "    title           : 2.20: The NHL Will Continue Until Morale Improves\n",
      "    comment         : So phase 2 beats on, himbos against the current, borne back ceaselessly into a league-wide lockdown.\n",
      "    lyrics-ENG      : <p>The girls are back in town once again because the NHL cannot stop bungling their increasingly pathetic attempt to reenact the 2020 Stanley Cup Playoffs in Las Vegas. This week, 11 players tested positive (for corona, not cooties), Roman Polak yeeted fr\n",
      "                    : \n",
      "    album           : Puck Bunnies\n",
      "    genre           : Podcast\n",
      "    date            : 2021\n",
      "  Duration: 00:39:52.56, start: 0.000000, bitrate: 128 kb/s\n",
      "  Stream #0:0: Audio: mp3 (mp3float), 44100 Hz, stereo, fltp, 128 kb/s\n",
      "  Stream #0:1: Video: mjpeg (Progressive), yuvj420p(pc, bt470bg/unknown/unknown), 500x500 [SAR 72:72 DAR 1:1], 90k tbr, 90k tbn (attached pic)\n",
      "      Metadata:\n",
      "        title           : image\n",
      "        comment         : Other\n",
      "Stream mapping:\n",
      "  Stream #0:0 -> #0:0 (mp3 (mp3float) -> pcm_s16le (native))\n",
      "Press [q] to stop, [?] for help\n"
     ]
    },
    {
     "name": "stdout",
     "output_type": "stream",
     "text": [
      "Converted /shared/3/projects/bangzhao/prosodic_embeddings/mfa/cache/file_7.mp3 to /shared/3/projects/bangzhao/prosodic_embeddings/mfa/cache/file_7.wav\n",
      "Removed original MP3 file: /shared/3/projects/bangzhao/prosodic_embeddings/mfa/cache/file_7.mp3\n"
     ]
    },
    {
     "name": "stderr",
     "output_type": "stream",
     "text": [
      "Output #0, wav, to '/shared/3/projects/bangzhao/prosodic_embeddings/mfa/cache/file_8.wav':\n",
      "  Metadata:\n",
      "    INAM            : 2.20: The NHL Will Continue Until Morale Improves\n",
      "    ICMT            : So phase 2 beats on, himbos against the current, borne back ceaselessly into a league-wide lockdown.\n",
      "    lyrics-ENG      : <p>The girls are back in town once again because the NHL cannot stop bungling their increasingly pathetic attempt to reenact the 2020 Stanley Cup Playoffs in Las Vegas. This week, 11 players tested positive (for corona, not cooties), Roman Polak yeeted fr\n",
      "                    : \n",
      "    IPRD            : Puck Bunnies\n",
      "    IGNR            : Podcast\n",
      "    ICRD            : 2021\n",
      "    ISFT            : Lavf61.1.100\n",
      "  Stream #0:0: Audio: pcm_s16le ([1][0][0][0] / 0x0001), 44100 Hz, stereo, s16, 1411 kb/s\n",
      "      Metadata:\n",
      "        encoder         : Lavc61.3.100 pcm_s16le\n",
      "[out#0/wav @ 0x557bad45e700] video:0KiB audio:412155KiB subtitle:0KiB other streams:0KiB global headers:0KiB muxing overhead: 0.000071%\n",
      "size=  412155KiB time=00:39:52.55 bitrate=1411.2kbits/s speed= 149x    \n",
      "ffmpeg version 7.0.1 Copyright (c) 2000-2024 the FFmpeg developers\n",
      "  built with gcc 12.3.0 (conda-forge gcc 12.3.0-7)\n",
      "  configuration: --prefix=/home/conda/feedstock_root/build_artifacts/ffmpeg_1716729489913/_h_env_placehold_placehold_placehold_placehold_placehold_placehold_placehold_placehold_placehold_placehold_placehold_placehold_placehold_placehold_placehold_placehold_placehold_placehold_plac --cc=/home/conda/feedstock_root/build_artifacts/ffmpeg_1716729489913/_build_env/bin/x86_64-conda-linux-gnu-cc --cxx=/home/conda/feedstock_root/build_artifacts/ffmpeg_1716729489913/_build_env/bin/x86_64-conda-linux-gnu-c++ --nm=/home/conda/feedstock_root/build_artifacts/ffmpeg_1716729489913/_build_env/bin/x86_64-conda-linux-gnu-nm --ar=/home/conda/feedstock_root/build_artifacts/ffmpeg_1716729489913/_build_env/bin/x86_64-conda-linux-gnu-ar --disable-doc --disable-openssl --enable-demuxer=dash --enable-hardcoded-tables --enable-libfreetype --enable-libharfbuzz --enable-libfontconfig --enable-libopenh264 --enable-libdav1d --enable-gnutls --enable-libmp3lame --enable-libvpx --enable-libass --enable-pthreads --enable-vaapi --enable-libopenvino --enable-gpl --enable-libx264 --enable-libx265 --enable-libaom --enable-libsvtav1 --enable-libxml2 --enable-pic --enable-shared --disable-static --enable-version3 --enable-zlib --enable-libopus --pkg-config=/home/conda/feedstock_root/build_artifacts/ffmpeg_1716729489913/_build_env/bin/pkg-config\n",
      "  libavutil      59.  8.100 / 59.  8.100\n",
      "  libavcodec     61.  3.100 / 61.  3.100\n",
      "  libavformat    61.  1.100 / 61.  1.100\n",
      "  libavdevice    61.  1.100 / 61.  1.100\n",
      "  libavfilter    10.  1.100 / 10.  1.100\n",
      "  libswscale      8.  1.100 /  8.  1.100\n",
      "  libswresample   5.  1.100 /  5.  1.100\n",
      "  libpostproc    58.  1.100 / 58.  1.100\n",
      "[mp3 @ 0x5645dd720b40] Estimating duration from bitrate, this may be inaccurate\n",
      "Input #0, mp3, from '/shared/3/projects/bangzhao/prosodic_embeddings/mfa/cache/file_15.mp3':\n",
      "  Metadata:\n",
      "    album_artist    : Bryce Blankenagel\n",
      "    album           : Glass Box Podcast\n",
      "    artist          : Bryce Blankenagel/Braden Hamm\n",
      "    genre           : Religion & Spirituality\n",
      "    publisher       : Ground Gnomes LLC\n",
      "    title           : Ep 49 - Defund Politics\n",
      "    comment         : Lots of interlocking stories to discuss this week. We jump right in with a discussion about the most recent headlines sparked by the protests following George Floyd’s death. A lot of legislation has been crafted in response to the protests, including an \n",
      "                    :  \n",
      "                    : Links: \n",
      "                    :  \n",
      "                    : Trump’s Executive Order on Police Reform \n",
      "                    : https://www.whitehouse.gov/presidential-actions/executive-order-safe-policing-safe-communities \n",
      "                    :  \n",
      "                    : Orgs mentioned during EO signing \n",
      "                    : Federal law enforcement officers association https://www.fleoa.org/news.aspx?id=19 \n",
      "                    : Fraternal order of police https://www.fop.net/CmsPage.aspx?id=39 \n",
      "                    : Internal ass of chiefs of police https://www.theiacp.org/ \n",
      "                    : Intl union of police association; “The Voice of Law Enforcement Officers” https://iupa.org/ \n",
      "                    : Major county sherrifs of am ass https://mcsheriffs.com/ \n",
      "                    : Natl Ass of police orgs http://www.napo.org/ \n",
      "                    : Natl District attorneys ass https://ndaa.org/ \n",
      "                    : Sergeants benevolent ass https://sbanypd.nyc/ \n",
      "                    :  \n",
      "                    : Who wasn’t at the Exec Order signing? https://fundersforjustice.org/organizations/ \n",
      "                    :  \n",
      "                    : Atlanta, GA Police Walkout \n",
      "                    : https://www.washingtonpost.com/nation/2020/06/18/atlanta-rayshard-brooks-walkout/ \n",
      "                    :  \n",
      "                    : Seattle just expelled the Police Union from the city’s labor group. https://apnews.com/7267abcb991ec5210f85aa03eb7ed433#:~:text=SEATTLE%20(AP)%20%E2%80%94%20The%20largest,address%20racism%20within%20its%20ranks.&text=Local%20elected%20leaders%20are%20re \n",
      "                    :  \n",
      "                    : Seattle City Council on Police reform bills \n",
      "                    : https://www.youtube.com/watch?v=spGMa6-Xu1U \n",
      "                    :  \n",
      "                    : BYU formed a committee to “examine race and inequality at BYU”. https://news.byu.edu/announcements/committee-formed-to-examine-race-and-inequality-at-byu \n",
      "                    :  \n",
      "                    : Donate to groups working or advocating for racial justice and end of racism \n",
      "                    : https://secure.actblue.com/donate/fre... \n",
      "                    : https://justiceforbreonna.org \n",
      "                    : https://www.joincampaignzero.org \n",
      "                    : https://www.naacp.org/ \n",
      "                    : https://www.aclu.org/ \n",
      "                    : https://blacklivesmatter.com/ \n",
      "                    :  \n",
      "                    : Show Links: \n",
      "                    : Website http://www.glassboxpodcast.com/index.html \n",
      "                    : Find us on Facebook and Twitter @Glass Box Podcast\n",
      "    date            : 2020\n",
      "  Duration: 02:46:27.19, start: 0.000000, bitrate: 128 kb/s\n",
      "  Stream #0:0: Audio: mp3 (mp3float), 44100 Hz, stereo, fltp, 128 kb/s\n",
      "Stream mapping:\n",
      "  Stream #0:0 -> #0:0 (mp3 (mp3float) -> pcm_s16le (native))\n",
      "Press [q] to stop, [?] for help\n",
      "Output #0, wav, to '/shared/3/projects/bangzhao/prosodic_embeddings/mfa/cache/file_15.wav':\n",
      "  Metadata:\n",
      "    album_artist    : Bryce Blankenagel\n",
      "    IPRD            : Glass Box Podcast\n",
      "    IART            : Bryce Blankenagel/Braden Hamm\n",
      "    IGNR            : Religion & Spirituality\n",
      "    publisher       : Ground Gnomes LLC\n",
      "    INAM            : Ep 49 - Defund Politics\n",
      "    ICMT            : Lots of interlocking stories to discuss this week. We jump right in with a discussion about the most recent headlines sparked by the protests following George Floyd’s death. A lot of legislation has been crafted in response to the protests, including an \n",
      "                    :  \n",
      "                    : Links: \n",
      "                    :  \n",
      "                    : Trump’s Executive Order on Police Reform \n",
      "                    : https://www.whitehouse.gov/presidential-actions/executive-order-safe-policing-safe-communities \n",
      "                    :  \n",
      "                    : Orgs mentioned during EO signing \n",
      "                    : Federal law enforcement officers association https://www.fleoa.org/news.aspx?id=19 \n",
      "                    : Fraternal order of police https://www.fop.net/CmsPage.aspx?id=39 \n",
      "                    : Internal ass of chiefs of police https://www.theiacp.org/ \n",
      "                    : Intl union of police association; “The Voice of Law Enforcement Officers” https://iupa.org/ \n",
      "                    : Major county sherrifs of am ass https://mcsheriffs.com/ \n",
      "                    : Natl Ass of police orgs http://www.napo.org/ \n",
      "                    : Natl District attorneys ass https://ndaa.org/ \n",
      "                    : Sergeants benevolent ass https://sbanypd.nyc/ \n",
      "                    :  \n",
      "                    : Who wasn’t at the Exec Order signing? https://fundersforjustice.org/organizations/ \n",
      "                    :  \n",
      "                    : Atlanta, GA Police Walkout \n",
      "                    : https://www.washingtonpost.com/nation/2020/06/18/atlanta-rayshard-brooks-walkout/ \n",
      "                    :  \n",
      "                    : Seattle just expelled the Police Union from the city’s labor group. https://apnews.com/7267abcb991ec5210f85aa03eb7ed433#:~:text=SEATTLE%20(AP)%20%E2%80%94%20The%20largest,address%20racism%20within%20its%20ranks.&text=Local%20elected%20leaders%20are%20re \n",
      "                    :  \n",
      "                    : Seattle City Council on Police reform bills \n",
      "                    : https://www.youtube.com/watch?v=spGMa6-Xu1U \n",
      "                    :  \n",
      "                    : BYU formed a committee to “examine race and inequality at BYU”. https://news.byu.edu/announcements/committee-formed-to-examine-race-and-inequality-at-byu \n",
      "                    :  \n",
      "                    : Donate to groups working or advocating for racial justice and end of racism \n",
      "                    : https://secure.actblue.com/donate/fre... \n",
      "                    : https://justiceforbreonna.org \n",
      "                    : https://www.joincampaignzero.org \n",
      "                    : https://www.naacp.org/ \n",
      "                    : https://www.aclu.org/ \n",
      "                    : https://blacklivesmatter.com/ \n",
      "                    :  \n",
      "                    : Show Links: \n",
      "                    : Website http://www.glassboxpodcast.com/index.html \n",
      "                    : Find us on Facebook and Twitter @Glass Box Podcast\n",
      "    ICRD            : 2020\n",
      "    ISFT            : Lavf61.1.100\n",
      "  Stream #0:0: Audio: pcm_s16le ([1][0][0][0] / 0x0001), 44100 Hz, stereo, s16, 1411 kb/s\n",
      "      Metadata:\n",
      "        encoder         : Lavc61.3.100 pcm_s16le\n"
     ]
    },
    {
     "name": "stdout",
     "output_type": "stream",
     "text": [
      "Converted /shared/3/projects/bangzhao/prosodic_embeddings/mfa/cache/file_8.mp3 to /shared/3/projects/bangzhao/prosodic_embeddings/mfa/cache/file_8.wav\n",
      "Removed original MP3 file: /shared/3/projects/bangzhao/prosodic_embeddings/mfa/cache/file_8.mp3\n"
     ]
    },
    {
     "name": "stderr",
     "output_type": "stream",
     "text": [
      "[out#0/wav @ 0x5645dd726740] video:0KiB audio:1720449KiB subtitle:0KiB other streams:0KiB global headers:0KiB muxing overhead: 0.000190%\n",
      "size= 1720452KiB time=02:46:27.18 bitrate=1411.2kbits/s speed= 180x    \n",
      "ffmpeg version 7.0.1 Copyright (c) 2000-2024 the FFmpeg developers\n",
      "  built with gcc 12.3.0 (conda-forge gcc 12.3.0-7)\n",
      "  configuration: --prefix=/home/conda/feedstock_root/build_artifacts/ffmpeg_1716729489913/_h_env_placehold_placehold_placehold_placehold_placehold_placehold_placehold_placehold_placehold_placehold_placehold_placehold_placehold_placehold_placehold_placehold_placehold_placehold_plac --cc=/home/conda/feedstock_root/build_artifacts/ffmpeg_1716729489913/_build_env/bin/x86_64-conda-linux-gnu-cc --cxx=/home/conda/feedstock_root/build_artifacts/ffmpeg_1716729489913/_build_env/bin/x86_64-conda-linux-gnu-c++ --nm=/home/conda/feedstock_root/build_artifacts/ffmpeg_1716729489913/_build_env/bin/x86_64-conda-linux-gnu-nm --ar=/home/conda/feedstock_root/build_artifacts/ffmpeg_1716729489913/_build_env/bin/x86_64-conda-linux-gnu-ar --disable-doc --disable-openssl --enable-demuxer=dash --enable-hardcoded-tables --enable-libfreetype --enable-libharfbuzz --enable-libfontconfig --enable-libopenh264 --enable-libdav1d --enable-gnutls --enable-libmp3lame --enable-libvpx --enable-libass --enable-pthreads --enable-vaapi --enable-libopenvino --enable-gpl --enable-libx264 --enable-libx265 --enable-libaom --enable-libsvtav1 --enable-libxml2 --enable-pic --enable-shared --disable-static --enable-version3 --enable-zlib --enable-libopus --pkg-config=/home/conda/feedstock_root/build_artifacts/ffmpeg_1716729489913/_build_env/bin/pkg-config\n",
      "  libavutil      59.  8.100 / 59.  8.100\n",
      "  libavcodec     61.  3.100 / 61.  3.100\n",
      "  libavformat    61.  1.100 / 61.  1.100\n",
      "  libavdevice    61.  1.100 / 61.  1.100\n",
      "  libavfilter    10.  1.100 / 10.  1.100\n",
      "  libswscale      8.  1.100 /  8.  1.100\n",
      "  libswresample   5.  1.100 /  5.  1.100\n",
      "  libpostproc    58.  1.100 / 58.  1.100\n",
      "[mp3 @ 0x55e29a0ccb40] Estimating duration from bitrate, this may be inaccurate\n",
      "Input #0, mp3, from '/shared/3/projects/bangzhao/prosodic_embeddings/mfa/cache/file_16.mp3':\n",
      "  Metadata:\n",
      "    comment         : \n",
      "    album_artist    : Bryce Blankenagel\n",
      "    title           : Ep 48 - The Negro: A Proclamation to the World; Case for BoM Final\n",
      "    album           : Glass Box Podcast\n",
      "    artist          : Bryce Blankenagel/Braden Hamm\n",
      "    genre           : Religion & Spirituality\n",
      "    publisher       : Ground Gnomes LLC\n",
      "    date            : 2020\n",
      "  Duration: 02:34:22.66, start: 0.000000, bitrate: 128 kb/s\n",
      "  Stream #0:0: Audio: mp3 (mp3float), 44100 Hz, stereo, fltp, 128 kb/s\n",
      "Stream mapping:\n",
      "  Stream #0:0 -> #0:0 (mp3 (mp3float) -> pcm_s16le (native))\n",
      "Press [q] to stop, [?] for help\n"
     ]
    },
    {
     "name": "stdout",
     "output_type": "stream",
     "text": [
      "Converted /shared/3/projects/bangzhao/prosodic_embeddings/mfa/cache/file_15.mp3 to /shared/3/projects/bangzhao/prosodic_embeddings/mfa/cache/file_15.wav\n",
      "Removed original MP3 file: /shared/3/projects/bangzhao/prosodic_embeddings/mfa/cache/file_15.mp3\n"
     ]
    },
    {
     "name": "stderr",
     "output_type": "stream",
     "text": [
      "Output #0, wav, to '/shared/3/projects/bangzhao/prosodic_embeddings/mfa/cache/file_16.wav':\n",
      "  Metadata:\n",
      "    ICMT            : \n",
      "    album_artist    : Bryce Blankenagel\n",
      "    INAM            : Ep 48 - The Negro: A Proclamation to the World; Case for BoM Final\n",
      "    IPRD            : Glass Box Podcast\n",
      "    IART            : Bryce Blankenagel/Braden Hamm\n",
      "    IGNR            : Religion & Spirituality\n",
      "    publisher       : Ground Gnomes LLC\n",
      "    ICRD            : 2020\n",
      "    ISFT            : Lavf61.1.100\n",
      "  Stream #0:0: Audio: pcm_s16le ([1][0][0][0] / 0x0001), 44100 Hz, stereo, s16, 1411 kb/s\n",
      "      Metadata:\n",
      "        encoder         : Lavc61.3.100 pcm_s16le\n",
      "[out#0/wav @ 0x55e29a0d2940] video:0KiB audio:1595637KiB subtitle:0KiB other streams:0KiB global headers:0KiB muxing overhead: 0.000016%\n",
      "size= 1595637KiB time=02:34:22.65 bitrate=1411.2kbits/s speed= 185x    \n",
      "ffmpeg version 7.0.1 Copyright (c) 2000-2024 the FFmpeg developers\n",
      "  built with gcc 12.3.0 (conda-forge gcc 12.3.0-7)\n",
      "  configuration: --prefix=/home/conda/feedstock_root/build_artifacts/ffmpeg_1716729489913/_h_env_placehold_placehold_placehold_placehold_placehold_placehold_placehold_placehold_placehold_placehold_placehold_placehold_placehold_placehold_placehold_placehold_placehold_placehold_plac --cc=/home/conda/feedstock_root/build_artifacts/ffmpeg_1716729489913/_build_env/bin/x86_64-conda-linux-gnu-cc --cxx=/home/conda/feedstock_root/build_artifacts/ffmpeg_1716729489913/_build_env/bin/x86_64-conda-linux-gnu-c++ --nm=/home/conda/feedstock_root/build_artifacts/ffmpeg_1716729489913/_build_env/bin/x86_64-conda-linux-gnu-nm --ar=/home/conda/feedstock_root/build_artifacts/ffmpeg_1716729489913/_build_env/bin/x86_64-conda-linux-gnu-ar --disable-doc --disable-openssl --enable-demuxer=dash --enable-hardcoded-tables --enable-libfreetype --enable-libharfbuzz --enable-libfontconfig --enable-libopenh264 --enable-libdav1d --enable-gnutls --enable-libmp3lame --enable-libvpx --enable-libass --enable-pthreads --enable-vaapi --enable-libopenvino --enable-gpl --enable-libx264 --enable-libx265 --enable-libaom --enable-libsvtav1 --enable-libxml2 --enable-pic --enable-shared --disable-static --enable-version3 --enable-zlib --enable-libopus --pkg-config=/home/conda/feedstock_root/build_artifacts/ffmpeg_1716729489913/_build_env/bin/pkg-config\n",
      "  libavutil      59.  8.100 / 59.  8.100\n",
      "  libavcodec     61.  3.100 / 61.  3.100\n",
      "  libavformat    61.  1.100 / 61.  1.100\n",
      "  libavdevice    61.  1.100 / 61.  1.100\n",
      "  libavfilter    10.  1.100 / 10.  1.100\n",
      "  libswscale      8.  1.100 /  8.  1.100\n",
      "  libswresample   5.  1.100 /  5.  1.100\n",
      "  libpostproc    58.  1.100 / 58.  1.100\n"
     ]
    },
    {
     "name": "stdout",
     "output_type": "stream",
     "text": [
      "Converted /shared/3/projects/bangzhao/prosodic_embeddings/mfa/cache/file_16.mp3 to /shared/3/projects/bangzhao/prosodic_embeddings/mfa/cache/file_16.wav\n",
      "Removed original MP3 file: /shared/3/projects/bangzhao/prosodic_embeddings/mfa/cache/file_16.mp3\n"
     ]
    },
    {
     "name": "stderr",
     "output_type": "stream",
     "text": [
      "[mp3 @ 0x55f354744b40] Estimating duration from bitrate, this may be inaccurate\n",
      "Input #0, mp3, from '/shared/3/projects/bangzhao/prosodic_embeddings/mfa/cache/file_17.mp3':\n",
      "  Metadata:\n",
      "    album_artist    : Bryce Blankenagel\n",
      "    title           : Ep 47 - Haven’t We Done This Already?\n",
      "    comment         : Update on COVID-19 time! The Mormon church is taking steps to reopen wards around the globe while there’s no evidence that we’ve effectively flattened the curve. They’re also investing some resources into making PPE for medical workers in the form o \n",
      "                    :  \n",
      "                    : Angels Trumpet: \n",
      "                    : https://www.sltrib.com/religion/2020/05/20/lds-church-sells-exxon/ \n",
      "                    :  \n",
      "                    : https://www.sltrib.com/religion/2020/05/19/lds-church-unveils-plan/ \n",
      "                    :  \n",
      "                    : https://newsroom.churchofjesuschrist.org/article/global-sacred-clothing-production-facilities-temporarily-produce-masks-gowns \n",
      "                    :  \n",
      "                    : https://newsroom.churchofjesuschrist.org/article/safe-return-church-meetings-activities \n",
      "                    :  \n",
      "                    : Media of Great Price: \n",
      "                    : After Life \n",
      "                    :  \n",
      "                    : Happy News: \n",
      "                    : Interesting contrast to the church. Church worries about stocks, while Utah vodka brand makes and donates sanitizer to the navajo nation: https://www.facebook.com/FiveWives/posts/2870931026289832 \n",
      "                    :  \n",
      "                    : Don’t miss Bryce’s guest spot on the most recent How 2 Heretic Podcast episode 140! \n",
      "                    : https://howtoheretic.com/podcast\n",
      "    album           : Glass Box Podcast\n",
      "    artist          : Bryce Blankenagel/Braden Hamm\n",
      "    publisher       : Ground Gnomes LLC\n",
      "    genre           : Religion & Spirituality\n",
      "    date            : 2020\n",
      "  Duration: 01:23:41.40, start: 0.000000, bitrate: 128 kb/s\n",
      "  Stream #0:0: Audio: mp3 (mp3float), 44100 Hz, stereo, fltp, 128 kb/s\n",
      "Stream mapping:\n",
      "  Stream #0:0 -> #0:0 (mp3 (mp3float) -> pcm_s16le (native))\n",
      "Press [q] to stop, [?] for help\n",
      "Output #0, wav, to '/shared/3/projects/bangzhao/prosodic_embeddings/mfa/cache/file_17.wav':\n",
      "  Metadata:\n",
      "    album_artist    : Bryce Blankenagel\n",
      "    INAM            : Ep 47 - Haven’t We Done This Already?\n",
      "    ICMT            : Update on COVID-19 time! The Mormon church is taking steps to reopen wards around the globe while there’s no evidence that we’ve effectively flattened the curve. They’re also investing some resources into making PPE for medical workers in the form o \n",
      "                    :  \n",
      "                    : Angels Trumpet: \n",
      "                    : https://www.sltrib.com/religion/2020/05/20/lds-church-sells-exxon/ \n",
      "                    :  \n",
      "                    : https://www.sltrib.com/religion/2020/05/19/lds-church-unveils-plan/ \n",
      "                    :  \n",
      "                    : https://newsroom.churchofjesuschrist.org/article/global-sacred-clothing-production-facilities-temporarily-produce-masks-gowns \n",
      "                    :  \n",
      "                    : https://newsroom.churchofjesuschrist.org/article/safe-return-church-meetings-activities \n",
      "                    :  \n",
      "                    : Media of Great Price: \n",
      "                    : After Life \n",
      "                    :  \n",
      "                    : Happy News: \n",
      "                    : Interesting contrast to the church. Church worries about stocks, while Utah vodka brand makes and donates sanitizer to the navajo nation: https://www.facebook.com/FiveWives/posts/2870931026289832 \n",
      "                    :  \n",
      "                    : Don’t miss Bryce’s guest spot on the most recent How 2 Heretic Podcast episode 140! \n",
      "                    : https://howtoheretic.com/podcast\n",
      "    IPRD            : Glass Box Podcast\n",
      "    IART            : Bryce Blankenagel/Braden Hamm\n",
      "    publisher       : Ground Gnomes LLC\n",
      "    IGNR            : Religion & Spirituality\n",
      "    ICRD            : 2020\n",
      "    ISFT            : Lavf61.1.100\n",
      "  Stream #0:0: Audio: pcm_s16le ([1][0][0][0] / 0x0001), 44100 Hz, stereo, s16, 1411 kb/s\n",
      "      Metadata:\n",
      "        encoder         : Lavc61.3.100 pcm_s16le\n",
      "[out#0/wav @ 0x55f35474b440] video:0KiB audio:865012KiB subtitle:0KiB other streams:0KiB global headers:0KiB muxing overhead: 0.000175%\n",
      "size=  865014KiB time=01:23:41.38 bitrate=1411.2kbits/s speed= 140x    \n"
     ]
    },
    {
     "name": "stdout",
     "output_type": "stream",
     "text": [
      "Converted /shared/3/projects/bangzhao/prosodic_embeddings/mfa/cache/file_17.mp3 to /shared/3/projects/bangzhao/prosodic_embeddings/mfa/cache/file_17.wav\n",
      "Removed original MP3 file: /shared/3/projects/bangzhao/prosodic_embeddings/mfa/cache/file_17.mp3\n"
     ]
    },
    {
     "name": "stderr",
     "output_type": "stream",
     "text": [
      "ffmpeg version 7.0.1 Copyright (c) 2000-2024 the FFmpeg developers\n",
      "  built with gcc 12.3.0 (conda-forge gcc 12.3.0-7)\n",
      "  configuration: --prefix=/home/conda/feedstock_root/build_artifacts/ffmpeg_1716729489913/_h_env_placehold_placehold_placehold_placehold_placehold_placehold_placehold_placehold_placehold_placehold_placehold_placehold_placehold_placehold_placehold_placehold_placehold_placehold_plac --cc=/home/conda/feedstock_root/build_artifacts/ffmpeg_1716729489913/_build_env/bin/x86_64-conda-linux-gnu-cc --cxx=/home/conda/feedstock_root/build_artifacts/ffmpeg_1716729489913/_build_env/bin/x86_64-conda-linux-gnu-c++ --nm=/home/conda/feedstock_root/build_artifacts/ffmpeg_1716729489913/_build_env/bin/x86_64-conda-linux-gnu-nm --ar=/home/conda/feedstock_root/build_artifacts/ffmpeg_1716729489913/_build_env/bin/x86_64-conda-linux-gnu-ar --disable-doc --disable-openssl --enable-demuxer=dash --enable-hardcoded-tables --enable-libfreetype --enable-libharfbuzz --enable-libfontconfig --enable-libopenh264 --enable-libdav1d --enable-gnutls --enable-libmp3lame --enable-libvpx --enable-libass --enable-pthreads --enable-vaapi --enable-libopenvino --enable-gpl --enable-libx264 --enable-libx265 --enable-libaom --enable-libsvtav1 --enable-libxml2 --enable-pic --enable-shared --disable-static --enable-version3 --enable-zlib --enable-libopus --pkg-config=/home/conda/feedstock_root/build_artifacts/ffmpeg_1716729489913/_build_env/bin/pkg-config\n",
      "  libavutil      59.  8.100 / 59.  8.100\n",
      "  libavcodec     61.  3.100 / 61.  3.100\n",
      "  libavformat    61.  1.100 / 61.  1.100\n",
      "  libavdevice    61.  1.100 / 61.  1.100\n",
      "  libavfilter    10.  1.100 / 10.  1.100\n",
      "  libswscale      8.  1.100 /  8.  1.100\n",
      "  libswresample   5.  1.100 /  5.  1.100\n",
      "  libpostproc    58.  1.100 / 58.  1.100\n",
      "[mp3 @ 0x56455b60bb40] Estimating duration from bitrate, this may be inaccurate\n",
      "Input #0, mp3, from '/shared/3/projects/bangzhao/prosodic_embeddings/mfa/cache/file_18.mp3':\n",
      "  Metadata:\n",
      "    title           : Ep 46 - Broken Missionary plus Case for Book of Mormon pt. 4\n",
      "    album_artist    : Bryce Blankenagel\n",
      "    album           : Glass Box Podcast\n",
      "    artist          : Bryce Blankenagel/Braden Hamm\n",
      "    comment         : We do something a little different this week. This show starts out with an interview of two elders in the mission field who no longer believe in Mormonism, yet are stuck on their mission during COVID lockdown. How do Elders A and B cope with being on a sa \n",
      "                    :  \n",
      "                    : Follow Broken Missionary here: \n",
      "                    : https://twitter.com/BrokenMissionay \n",
      "                    :  \n",
      "                    : Happy news https://www.bbc.com/news/world-europe-52585162 \n",
      "                    :  \n",
      "                    : Show Links: \n",
      "                    : Website http://www.glassboxpodcast.com/index.html \n",
      "                    : Find us on Facebook and Twitter @Glass Box Podcast\n",
      "    publisher       : Ground Gnomes LLC\n",
      "    genre           : Religion & Spirituality\n",
      "    date            : 2020\n",
      "  Duration: 01:42:01.52, start: 0.000000, bitrate: 128 kb/s\n",
      "  Stream #0:0: Audio: mp3 (mp3float), 44100 Hz, stereo, fltp, 128 kb/s\n",
      "Stream mapping:\n",
      "  Stream #0:0 -> #0:0 (mp3 (mp3float) -> pcm_s16le (native))\n",
      "Press [q] to stop, [?] for help\n",
      "Output #0, wav, to '/shared/3/projects/bangzhao/prosodic_embeddings/mfa/cache/file_18.wav':\n",
      "  Metadata:\n",
      "    INAM            : Ep 46 - Broken Missionary plus Case for Book of Mormon pt. 4\n",
      "    album_artist    : Bryce Blankenagel\n",
      "    IPRD            : Glass Box Podcast\n",
      "    IART            : Bryce Blankenagel/Braden Hamm\n",
      "    ICMT            : We do something a little different this week. This show starts out with an interview of two elders in the mission field who no longer believe in Mormonism, yet are stuck on their mission during COVID lockdown. How do Elders A and B cope with being on a sa \n",
      "                    :  \n",
      "                    : Follow Broken Missionary here: \n",
      "                    : https://twitter.com/BrokenMissionay \n",
      "                    :  \n",
      "                    : Happy news https://www.bbc.com/news/world-europe-52585162 \n",
      "                    :  \n",
      "                    : Show Links: \n",
      "                    : Website http://www.glassboxpodcast.com/index.html \n",
      "                    : Find us on Facebook and Twitter @Glass Box Podcast\n",
      "    publisher       : Ground Gnomes LLC\n",
      "    IGNR            : Religion & Spirituality\n",
      "    ICRD            : 2020\n",
      "    ISFT            : Lavf61.1.100\n",
      "  Stream #0:0: Audio: pcm_s16le ([1][0][0][0] / 0x0001), 44100 Hz, stereo, s16, 1411 kb/s\n",
      "      Metadata:\n",
      "        encoder         : Lavc61.3.100 pcm_s16le\n",
      "[out#0/wav @ 0x56455b611340] video:0KiB audio:1054526KiB subtitle:0KiB other streams:0KiB global headers:0KiB muxing overhead: 0.000117%\n",
      "size= 1054527KiB time=01:42:01.50 bitrate=1411.2kbits/s speed= 167x    \n",
      "ffmpeg version 7.0.1 Copyright (c) 2000-2024 the FFmpeg developers\n",
      "  built with gcc 12.3.0 (conda-forge gcc 12.3.0-7)\n",
      "  configuration: --prefix=/home/conda/feedstock_root/build_artifacts/ffmpeg_1716729489913/_h_env_placehold_placehold_placehold_placehold_placehold_placehold_placehold_placehold_placehold_placehold_placehold_placehold_placehold_placehold_placehold_placehold_placehold_placehold_plac --cc=/home/conda/feedstock_root/build_artifacts/ffmpeg_1716729489913/_build_env/bin/x86_64-conda-linux-gnu-cc --cxx=/home/conda/feedstock_root/build_artifacts/ffmpeg_1716729489913/_build_env/bin/x86_64-conda-linux-gnu-c++ --nm=/home/conda/feedstock_root/build_artifacts/ffmpeg_1716729489913/_build_env/bin/x86_64-conda-linux-gnu-nm --ar=/home/conda/feedstock_root/build_artifacts/ffmpeg_1716729489913/_build_env/bin/x86_64-conda-linux-gnu-ar --disable-doc --disable-openssl --enable-demuxer=dash --enable-hardcoded-tables --enable-libfreetype --enable-libharfbuzz --enable-libfontconfig --enable-libopenh264 --enable-libdav1d --enable-gnutls --enable-libmp3lame --enable-libvpx --enable-libass --enable-pthreads --enable-vaapi --enable-libopenvino --enable-gpl --enable-libx264 --enable-libx265 --enable-libaom --enable-libsvtav1 --enable-libxml2 --enable-pic --enable-shared --disable-static --enable-version3 --enable-zlib --enable-libopus --pkg-config=/home/conda/feedstock_root/build_artifacts/ffmpeg_1716729489913/_build_env/bin/pkg-config\n",
      "  libavutil      59.  8.100 / 59.  8.100\n",
      "  libavcodec     61.  3.100 / 61.  3.100\n",
      "  libavformat    61.  1.100 / 61.  1.100\n",
      "  libavdevice    61.  1.100 / 61.  1.100\n",
      "  libavfilter    10.  1.100 / 10.  1.100\n",
      "  libswscale      8.  1.100 /  8.  1.100\n",
      "  libswresample   5.  1.100 /  5.  1.100\n",
      "  libpostproc    58.  1.100 / 58.  1.100\n"
     ]
    },
    {
     "name": "stdout",
     "output_type": "stream",
     "text": [
      "Converted /shared/3/projects/bangzhao/prosodic_embeddings/mfa/cache/file_18.mp3 to /shared/3/projects/bangzhao/prosodic_embeddings/mfa/cache/file_18.wav\n",
      "Removed original MP3 file: /shared/3/projects/bangzhao/prosodic_embeddings/mfa/cache/file_18.mp3\n"
     ]
    },
    {
     "name": "stderr",
     "output_type": "stream",
     "text": [
      "Unknown attached picture mimetype: image/, skipping.\n",
      "[mp3 @ 0x564e86405b40] Estimating duration from bitrate, this may be inaccurate\n",
      "Input #0, mp3, from '/shared/3/projects/bangzhao/prosodic_embeddings/mfa/cache/file_19.mp3':\n",
      "  Metadata:\n",
      "    title           : Opioid Addictions- It Can Happen To Anyone\n",
      "    lyrics-ENG      : Summary Placeholder Episode ID: 15497780\n",
      "    album           : Getufit with Irene- Helping you lead a healthy lifestyle. \n",
      "    genre           : Podcast\n",
      "    date            : 2023\n",
      "  Duration: 00:27:00.11, start: 0.000000, bitrate: 128 kb/s\n",
      "  Stream #0:0: Audio: mp3 (mp3float), 44100 Hz, stereo, fltp, 128 kb/s\n",
      "Stream mapping:\n",
      "  Stream #0:0 -> #0:0 (mp3 (mp3float) -> pcm_s16le (native))\n",
      "Press [q] to stop, [?] for help\n",
      "Output #0, wav, to '/shared/3/projects/bangzhao/prosodic_embeddings/mfa/cache/file_19.wav':\n",
      "  Metadata:\n",
      "    INAM            : Opioid Addictions- It Can Happen To Anyone\n",
      "    lyrics-ENG      : Summary Placeholder Episode ID: 15497780\n",
      "    IPRD            : Getufit with Irene- Helping you lead a healthy lifestyle. \n",
      "    IGNR            : Podcast\n",
      "    ICRD            : 2023\n",
      "    ISFT            : Lavf61.1.100\n",
      "  Stream #0:0: Audio: pcm_s16le ([1][0][0][0] / 0x0001), 44100 Hz, stereo, s16, 1411 kb/s\n",
      "      Metadata:\n",
      "        encoder         : Lavc61.3.100 pcm_s16le\n",
      "[out#0/wav @ 0x564e8640a800] video:0KiB audio:279090KiB subtitle:0KiB other streams:0KiB global headers:0KiB muxing overhead: 0.000080%\n",
      "size=  279090KiB time=00:27:00.11 bitrate=1411.2kbits/s speed= 162x    \n",
      "ffmpeg version 7.0.1 Copyright (c) 2000-2024 the FFmpeg developers\n",
      "  built with gcc 12.3.0 (conda-forge gcc 12.3.0-7)\n",
      "  configuration: --prefix=/home/conda/feedstock_root/build_artifacts/ffmpeg_1716729489913/_h_env_placehold_placehold_placehold_placehold_placehold_placehold_placehold_placehold_placehold_placehold_placehold_placehold_placehold_placehold_placehold_placehold_placehold_placehold_plac --cc=/home/conda/feedstock_root/build_artifacts/ffmpeg_1716729489913/_build_env/bin/x86_64-conda-linux-gnu-cc --cxx=/home/conda/feedstock_root/build_artifacts/ffmpeg_1716729489913/_build_env/bin/x86_64-conda-linux-gnu-c++ --nm=/home/conda/feedstock_root/build_artifacts/ffmpeg_1716729489913/_build_env/bin/x86_64-conda-linux-gnu-nm --ar=/home/conda/feedstock_root/build_artifacts/ffmpeg_1716729489913/_build_env/bin/x86_64-conda-linux-gnu-ar --disable-doc --disable-openssl --enable-demuxer=dash --enable-hardcoded-tables --enable-libfreetype --enable-libharfbuzz --enable-libfontconfig --enable-libopenh264 --enable-libdav1d --enable-gnutls --enable-libmp3lame --enable-libvpx --enable-libass --enable-pthreads --enable-vaapi --enable-libopenvino --enable-gpl --enable-libx264 --enable-libx265 --enable-libaom --enable-libsvtav1 --enable-libxml2 --enable-pic --enable-shared --disable-static --enable-version3 --enable-zlib --enable-libopus --pkg-config=/home/conda/feedstock_root/build_artifacts/ffmpeg_1716729489913/_build_env/bin/pkg-config\n",
      "  libavutil      59.  8.100 / 59.  8.100\n",
      "  libavcodec     61.  3.100 / 61.  3.100\n",
      "  libavformat    61.  1.100 / 61.  1.100\n",
      "  libavdevice    61.  1.100 / 61.  1.100\n",
      "  libavfilter    10.  1.100 / 10.  1.100\n",
      "  libswscale      8.  1.100 /  8.  1.100\n",
      "  libswresample   5.  1.100 /  5.  1.100\n",
      "  libpostproc    58.  1.100 / 58.  1.100\n",
      "Unknown attached picture mimetype: image/, skipping.\n",
      "[mp3 @ 0x56037482eb40] Estimating duration from bitrate, this may be inaccurate\n",
      "Input #0, mp3, from '/shared/3/projects/bangzhao/prosodic_embeddings/mfa/cache/file_20.mp3':\n",
      "  Metadata:\n",
      "    title           : Why Diets Fail- Trust the Process\n",
      "    lyrics-ENG      : Summary Placeholder Episode ID: 15130404\n",
      "    album           : Getufit with Irene- Helping you lead a healthy lifestyle. \n",
      "    genre           : Podcast\n",
      "    date            : 2023\n",
      "  Duration: 00:27:00.11, start: 0.000000, bitrate: 128 kb/s\n",
      "  Stream #0:0: Audio: mp3 (mp3float), 44100 Hz, stereo, fltp, 128 kb/s\n",
      "Stream mapping:\n",
      "  Stream #0:0 -> #0:0 (mp3 (mp3float) -> pcm_s16le (native))\n",
      "Press [q] to stop, [?] for help\n"
     ]
    },
    {
     "name": "stdout",
     "output_type": "stream",
     "text": [
      "Converted /shared/3/projects/bangzhao/prosodic_embeddings/mfa/cache/file_19.mp3 to /shared/3/projects/bangzhao/prosodic_embeddings/mfa/cache/file_19.wav\n",
      "Removed original MP3 file: /shared/3/projects/bangzhao/prosodic_embeddings/mfa/cache/file_19.mp3\n"
     ]
    },
    {
     "name": "stderr",
     "output_type": "stream",
     "text": [
      "Output #0, wav, to '/shared/3/projects/bangzhao/prosodic_embeddings/mfa/cache/file_20.wav':\n",
      "  Metadata:\n",
      "    INAM            : Why Diets Fail- Trust the Process\n",
      "    lyrics-ENG      : Summary Placeholder Episode ID: 15130404\n",
      "    IPRD            : Getufit with Irene- Helping you lead a healthy lifestyle. \n",
      "    IGNR            : Podcast\n",
      "    ICRD            : 2023\n",
      "    ISFT            : Lavf61.1.100\n",
      "  Stream #0:0: Audio: pcm_s16le ([1][0][0][0] / 0x0001), 44100 Hz, stereo, s16, 1411 kb/s\n",
      "      Metadata:\n",
      "        encoder         : Lavc61.3.100 pcm_s16le\n",
      "[out#0/wav @ 0x560374833b00] video:0KiB audio:279090KiB subtitle:0KiB other streams:0KiB global headers:0KiB muxing overhead: 0.000076%\n",
      "size=  279090KiB time=00:27:00.11 bitrate=1411.2kbits/s speed= 138x    \n",
      "ffmpeg version 7.0.1 Copyright (c) 2000-2024 the FFmpeg developers\n",
      "  built with gcc 12.3.0 (conda-forge gcc 12.3.0-7)\n",
      "  configuration: --prefix=/home/conda/feedstock_root/build_artifacts/ffmpeg_1716729489913/_h_env_placehold_placehold_placehold_placehold_placehold_placehold_placehold_placehold_placehold_placehold_placehold_placehold_placehold_placehold_placehold_placehold_placehold_placehold_plac --cc=/home/conda/feedstock_root/build_artifacts/ffmpeg_1716729489913/_build_env/bin/x86_64-conda-linux-gnu-cc --cxx=/home/conda/feedstock_root/build_artifacts/ffmpeg_1716729489913/_build_env/bin/x86_64-conda-linux-gnu-c++ --nm=/home/conda/feedstock_root/build_artifacts/ffmpeg_1716729489913/_build_env/bin/x86_64-conda-linux-gnu-nm --ar=/home/conda/feedstock_root/build_artifacts/ffmpeg_1716729489913/_build_env/bin/x86_64-conda-linux-gnu-ar --disable-doc --disable-openssl --enable-demuxer=dash --enable-hardcoded-tables --enable-libfreetype --enable-libharfbuzz --enable-libfontconfig --enable-libopenh264 --enable-libdav1d --enable-gnutls --enable-libmp3lame --enable-libvpx --enable-libass --enable-pthreads --enable-vaapi --enable-libopenvino --enable-gpl --enable-libx264 --enable-libx265 --enable-libaom --enable-libsvtav1 --enable-libxml2 --enable-pic --enable-shared --disable-static --enable-version3 --enable-zlib --enable-libopus --pkg-config=/home/conda/feedstock_root/build_artifacts/ffmpeg_1716729489913/_build_env/bin/pkg-config\n",
      "  libavutil      59.  8.100 / 59.  8.100\n",
      "  libavcodec     61.  3.100 / 61.  3.100\n",
      "  libavformat    61.  1.100 / 61.  1.100\n",
      "  libavdevice    61.  1.100 / 61.  1.100\n",
      "  libavfilter    10.  1.100 / 10.  1.100\n",
      "  libswscale      8.  1.100 /  8.  1.100\n",
      "  libswresample   5.  1.100 /  5.  1.100\n",
      "  libpostproc    58.  1.100 / 58.  1.100\n",
      "Unknown attached picture mimetype: image/, skipping.\n",
      "[mp3 @ 0x55ddd27e7b40] Estimating duration from bitrate, this may be inaccurate\n",
      "Input #0, mp3, from '/shared/3/projects/bangzhao/prosodic_embeddings/mfa/cache/file_21.mp3':\n",
      "  Metadata:\n",
      "    title           : Summer Fitness Hacks To Stay Fit\n",
      "    lyrics-ENG      : Summary Placeholder Episode ID: 14585985\n",
      "    album           : Getufit with Irene- Helping you lead a healthy lifestyle. \n",
      "    genre           : Podcast\n",
      "    date            : 2023\n",
      "  Duration: 00:27:00.11, start: 0.000000, bitrate: 128 kb/s\n",
      "  Stream #0:0: Audio: mp3 (mp3float), 44100 Hz, stereo, fltp, 128 kb/s\n",
      "Stream mapping:\n",
      "  Stream #0:0 -> #0:0 (mp3 (mp3float) -> pcm_s16le (native))\n",
      "Press [q] to stop, [?] for help\n",
      "Output #0, wav, to '/shared/3/projects/bangzhao/prosodic_embeddings/mfa/cache/file_21.wav':\n",
      "  Metadata:\n",
      "    INAM            : Summer Fitness Hacks To Stay Fit\n",
      "    lyrics-ENG      : Summary Placeholder Episode ID: 14585985\n",
      "    IPRD            : Getufit with Irene- Helping you lead a healthy lifestyle. \n",
      "    IGNR            : Podcast\n",
      "    ICRD            : 2023\n",
      "    ISFT            : Lavf61.1.100\n",
      "  Stream #0:0: Audio: pcm_s16le ([1][0][0][0] / 0x0001), 44100 Hz, stereo, s16, 1411 kb/s\n",
      "      Metadata:\n",
      "        encoder         : Lavc61.3.100 pcm_s16le\n"
     ]
    },
    {
     "name": "stdout",
     "output_type": "stream",
     "text": [
      "Converted /shared/3/projects/bangzhao/prosodic_embeddings/mfa/cache/file_20.mp3 to /shared/3/projects/bangzhao/prosodic_embeddings/mfa/cache/file_20.wav\n",
      "Removed original MP3 file: /shared/3/projects/bangzhao/prosodic_embeddings/mfa/cache/file_20.mp3\n"
     ]
    },
    {
     "name": "stderr",
     "output_type": "stream",
     "text": [
      "[out#0/wav @ 0x55ddd27ecb00] video:0KiB audio:279090KiB subtitle:0KiB other streams:0KiB global headers:0KiB muxing overhead: 0.000076%\n",
      "size=  279090KiB time=00:27:00.11 bitrate=1411.2kbits/s speed= 167x    \n",
      "ffmpeg version 7.0.1 Copyright (c) 2000-2024 the FFmpeg developers\n",
      "  built with gcc 12.3.0 (conda-forge gcc 12.3.0-7)\n",
      "  configuration: --prefix=/home/conda/feedstock_root/build_artifacts/ffmpeg_1716729489913/_h_env_placehold_placehold_placehold_placehold_placehold_placehold_placehold_placehold_placehold_placehold_placehold_placehold_placehold_placehold_placehold_placehold_placehold_placehold_plac --cc=/home/conda/feedstock_root/build_artifacts/ffmpeg_1716729489913/_build_env/bin/x86_64-conda-linux-gnu-cc --cxx=/home/conda/feedstock_root/build_artifacts/ffmpeg_1716729489913/_build_env/bin/x86_64-conda-linux-gnu-c++ --nm=/home/conda/feedstock_root/build_artifacts/ffmpeg_1716729489913/_build_env/bin/x86_64-conda-linux-gnu-nm --ar=/home/conda/feedstock_root/build_artifacts/ffmpeg_1716729489913/_build_env/bin/x86_64-conda-linux-gnu-ar --disable-doc --disable-openssl --enable-demuxer=dash --enable-hardcoded-tables --enable-libfreetype --enable-libharfbuzz --enable-libfontconfig --enable-libopenh264 --enable-libdav1d --enable-gnutls --enable-libmp3lame --enable-libvpx --enable-libass --enable-pthreads --enable-vaapi --enable-libopenvino --enable-gpl --enable-libx264 --enable-libx265 --enable-libaom --enable-libsvtav1 --enable-libxml2 --enable-pic --enable-shared --disable-static --enable-version3 --enable-zlib --enable-libopus --pkg-config=/home/conda/feedstock_root/build_artifacts/ffmpeg_1716729489913/_build_env/bin/pkg-config\n",
      "  libavutil      59.  8.100 / 59.  8.100\n",
      "  libavcodec     61.  3.100 / 61.  3.100\n",
      "  libavformat    61.  1.100 / 61.  1.100\n",
      "  libavdevice    61.  1.100 / 61.  1.100\n",
      "  libavfilter    10.  1.100 / 10.  1.100\n",
      "  libswscale      8.  1.100 /  8.  1.100\n",
      "  libswresample   5.  1.100 /  5.  1.100\n",
      "  libpostproc    58.  1.100 / 58.  1.100\n",
      "Unknown attached picture mimetype: image/, skipping.\n",
      "[mp3 @ 0x56485a9f0b40] Estimating duration from bitrate, this may be inaccurate\n",
      "Input #0, mp3, from '/shared/3/projects/bangzhao/prosodic_embeddings/mfa/cache/file_22.mp3':\n",
      "  Metadata:\n",
      "    title           : Intermittent Fasting - Yay or Nay?\n",
      "    lyrics-ENG      : Summary Placeholder Episode ID: 14175014\n",
      "    album           : Getufit with Irene- Helping you lead a healthy lifestyle. \n",
      "    genre           : Podcast\n",
      "    date            : 2023\n",
      "  Duration: 00:27:00.11, start: 0.000000, bitrate: 128 kb/s\n",
      "  Stream #0:0: Audio: mp3 (mp3float), 44100 Hz, stereo, fltp, 128 kb/s\n",
      "Stream mapping:\n",
      "  Stream #0:0 -> #0:0 (mp3 (mp3float) -> pcm_s16le (native))\n",
      "Press [q] to stop, [?] for help\n"
     ]
    },
    {
     "name": "stdout",
     "output_type": "stream",
     "text": [
      "Converted /shared/3/projects/bangzhao/prosodic_embeddings/mfa/cache/file_21.mp3 to /shared/3/projects/bangzhao/prosodic_embeddings/mfa/cache/file_21.wav\n",
      "Removed original MP3 file: /shared/3/projects/bangzhao/prosodic_embeddings/mfa/cache/file_21.mp3\n"
     ]
    },
    {
     "name": "stderr",
     "output_type": "stream",
     "text": [
      "Output #0, wav, to '/shared/3/projects/bangzhao/prosodic_embeddings/mfa/cache/file_22.wav':\n",
      "  Metadata:\n",
      "    INAM            : Intermittent Fasting - Yay or Nay?\n",
      "    lyrics-ENG      : Summary Placeholder Episode ID: 14175014\n",
      "    IPRD            : Getufit with Irene- Helping you lead a healthy lifestyle. \n",
      "    IGNR            : Podcast\n",
      "    ICRD            : 2023\n",
      "    ISFT            : Lavf61.1.100\n",
      "  Stream #0:0: Audio: pcm_s16le ([1][0][0][0] / 0x0001), 44100 Hz, stereo, s16, 1411 kb/s\n",
      "      Metadata:\n",
      "        encoder         : Lavc61.3.100 pcm_s16le\n",
      "[out#0/wav @ 0x56485a9f5b00] video:0KiB audio:279090KiB subtitle:0KiB other streams:0KiB global headers:0KiB muxing overhead: 0.000077%\n",
      "size=  279090KiB time=00:27:00.11 bitrate=1411.2kbits/s speed= 152x    \n"
     ]
    },
    {
     "name": "stdout",
     "output_type": "stream",
     "text": [
      "Converted /shared/3/projects/bangzhao/prosodic_embeddings/mfa/cache/file_22.mp3 to /shared/3/projects/bangzhao/prosodic_embeddings/mfa/cache/file_22.wav\n",
      "Removed original MP3 file: /shared/3/projects/bangzhao/prosodic_embeddings/mfa/cache/file_22.mp3\n",
      "Running command: mfa align --clean /shared/3/projects/bangzhao/prosodic_embeddings/mfa/cache english_us_arpa english_us_arpa /shared/3/projects/bangzhao/prosodic_embeddings/mfa/output --beam 10 --retry_beam 40 --num_jobs 12 --single_speaker\n"
     ]
    },
    {
     "name": "stderr",
     "output_type": "stream",
     "text": [
      "\u001b[2;36m \u001b[0m\u001b[32mINFO    \u001b[0m Setting up corpus information\u001b[33m...\u001b[0m                                      \n",
      "\u001b[2;36m \u001b[0m\u001b[32mINFO    \u001b[0m Loading corpus from source files\u001b[33m...\u001b[0m                                   \n"
     ]
    },
    {
     "name": "stdout",
     "output_type": "stream",
     "text": [
      "\u001b[2K\u001b[35m  12%\u001b[0m \u001b[91m━━━━\u001b[0m\u001b[90m╺\u001b[0m\u001b[90m━━━━━━━━━━━━━━━━━━━━━━━━━━━━━━\u001b[0m \u001b[32m12/100 \u001b[0m [ \u001b[33m0:00:02\u001b[0m < \u001b[36m0:01:56\u001b[0m , \u001b[31m1 it/s\u001b[0m ]\n",
      "\u001b[?25h"
     ]
    },
    {
     "name": "stderr",
     "output_type": "stream",
     "text": [
      "\u001b[2;36m \u001b[0m\u001b[32mINFO    \u001b[0m Found \u001b[1;36m1\u001b[0m speaker across \u001b[1;36m12\u001b[0m files, average number of utterances per     \n",
      "\u001b[2;36m \u001b[0m         speaker: \u001b[1;36m12.0\u001b[0m                                                         \n",
      "\u001b[2;36m \u001b[0m\u001b[32mINFO    \u001b[0m Initializing multiprocessing jobs\u001b[33m...\u001b[0m                                  \n",
      "\u001b[2;36m \u001b[0m\u001b[32mINFO    \u001b[0m Normalizing text\u001b[33m...\u001b[0m                                                   \n"
     ]
    },
    {
     "name": "stdout",
     "output_type": "stream",
     "text": [
      "\u001b[2K\u001b[35m 100%\u001b[0m \u001b[90m━━━━━━━━━━━━━━━━━━━━━━━━━━━━━━━━━━━━\u001b[0m \u001b[32m12/12 \u001b[0m [ \u001b[33m0:00:01\u001b[0m < \u001b[36m0:00:00\u001b[0m , \u001b[31m8 it/s\u001b[0m ] \u001b[31m7 it/s\u001b[0m ]\n",
      "\u001b[?25h"
     ]
    },
    {
     "name": "stderr",
     "output_type": "stream",
     "text": [
      "\u001b[2;36m \u001b[0m\u001b[32mINFO    \u001b[0m Generating MFCCs\u001b[33m...\u001b[0m                                                   \n"
     ]
    },
    {
     "name": "stdout",
     "output_type": "stream",
     "text": [
      "\u001b[2K\u001b[35m 100%\u001b[0m \u001b[90m━━━━━━━━━━━━━━━━━━━━━━━━━━━━━━━━━━━━\u001b[0m \u001b[32m12/12 \u001b[0m [ \u001b[33m0:15:54\u001b[0m < \u001b[36m0:00:00\u001b[0m , \u001b[31m? it/s\u001b[0m ] \u001b[31m? it/s\u001b[0m ]\n",
      "\u001b[?25h"
     ]
    },
    {
     "name": "stderr",
     "output_type": "stream",
     "text": [
      "\u001b[2;36m \u001b[0m\u001b[32mINFO    \u001b[0m Calculating CMVN\u001b[33m...\u001b[0m                                                   \n",
      "\u001b[2;36m \u001b[0m\u001b[32mINFO    \u001b[0m Generating final features\u001b[33m...\u001b[0m                                          \n"
     ]
    },
    {
     "name": "stdout",
     "output_type": "stream",
     "text": [
      "\u001b[2K\u001b[35m 100%\u001b[0m \u001b[90m━━━━━━━━━━━━━━━━━━━━━━━━━━━━━━━━━━━━\u001b[0m \u001b[32m12/12 \u001b[0m [ \u001b[33m0:00:05\u001b[0m < \u001b[36m0:00:00\u001b[0m , \u001b[31m3 it/s\u001b[0m ] \u001b[31m1 it/s\u001b[0m ]\n",
      "\u001b[?25h"
     ]
    },
    {
     "name": "stderr",
     "output_type": "stream",
     "text": [
      "\u001b[2;36m \u001b[0m\u001b[32mINFO    \u001b[0m Creating corpus split\u001b[33m...\u001b[0m                                              \n"
     ]
    },
    {
     "name": "stdout",
     "output_type": "stream",
     "text": [
      "\u001b[2K\u001b[35m 100%\u001b[0m \u001b[90m━━━━━━━━━━━━━━━━━━━━━━━━━━━━━━━━━━━━\u001b[0m \u001b[32m12/12 \u001b[0m [ \u001b[33m0:00:01\u001b[0m < \u001b[36m0:00:00\u001b[0m , \u001b[31m9 it/s\u001b[0m ] \u001b[31m? it/s\u001b[0m ]\n",
      "\u001b[?25h"
     ]
    },
    {
     "name": "stderr",
     "output_type": "stream",
     "text": [
      "\u001b[2;36m \u001b[0m\u001b[32mINFO    \u001b[0m Compiling training graphs\u001b[33m...\u001b[0m                                          \n",
      "\u001b[2;36m \u001b[0m\u001b[32mINFO    \u001b[0m Performing first-pass alignment\u001b[33m...\u001b[0m                                    \n",
      "\u001b[2;36m \u001b[0m\u001b[32mINFO    \u001b[0m Generating alignments\u001b[33m...\u001b[0m                                              \n"
     ]
    },
    {
     "name": "stdout",
     "output_type": "stream",
     "text": [
      "\u001b[2K\u001b[35m  75%\u001b[0m \u001b[91m━━━━━━━━━━━━━━━━━━━━━━━━━━━\u001b[0m\u001b[91m╸\u001b[0m\u001b[90m━━━━━━━━━\u001b[0m \u001b[32m9/12 \u001b[0m [ \u001b[33m0:16:07\u001b[0m < \u001b[36m-:--:--\u001b[0m , \u001b[31m? it/s\u001b[0m ]"
     ]
    },
    {
     "name": "stderr",
     "output_type": "stream",
     "text": [
      "\n",
      "KeyboardInterrupt\n",
      "\n"
     ]
    }
   ],
   "source": [
    "total_rows_processed = get_json_objects(metadata_path, download_path)\n",
    "print(f\"Total rows processed: {total_rows_processed}\")"
   ]
  },
  {
   "cell_type": "code",
   "execution_count": null,
   "id": "0f597cef",
   "metadata": {},
   "outputs": [],
   "source": []
  }
 ],
 "metadata": {
  "kernelspec": {
   "display_name": "Python 3 (ipykernel)",
   "language": "python",
   "name": "python3"
  },
  "language_info": {
   "codemirror_mode": {
    "name": "ipython",
    "version": 3
   },
   "file_extension": ".py",
   "mimetype": "text/x-python",
   "name": "python",
   "nbconvert_exporter": "python",
   "pygments_lexer": "ipython3",
   "version": "3.11.5"
  }
 },
 "nbformat": 4,
 "nbformat_minor": 5
}
